<?xml version="1.0" encoding="utf-8"?>
<!-- Generator: Adobe Illustrator 27.2.0, SVG Export Plug-In . SVG Version: 6.00 Build 0)  -->
<svg version="1.1" id="Capa_1" xmlns="http://www.w3.org/2000/svg" xmlns:xlink="http://www.w3.org/1999/xlink" x="0px" y="0px"
	 viewBox="0 0 128 128" style="enable-background:new 0 0 128 128;" xml:space="preserve">
<g>
	<path d="M58.98,50.99c-0.46-9.08-1.02-20-0.92-28.11h-0.28c-2.12,7.63-4.71,15.75-7.84,24.73L38.95,79.2h-6.09L22.8,48.19
		c-2.95-9.18-5.45-17.58-7.2-25.31h-0.18c-0.18,8.11-0.65,19.03-1.2,28.79l-1.66,27.92H4.9l4.34-65.11h10.24l10.61,31.49
		c2.58,8.02,4.71,15.17,6.27,21.93h0.28c1.57-6.57,3.78-13.72,6.55-21.93l11.07-31.49h10.24l3.88,65.11h-7.84L58.98,50.99z"/>
	<path d="M76.94,41.27c4.63-0.98,11.25-1.52,17.56-1.52c9.78,0,16.09,1.85,20.51,5.98c3.57,3.26,5.57,8.26,5.57,13.91
		c0,9.67-5.89,16.08-13.36,18.69v0.33c5.47,1.96,8.73,7.17,10.41,14.78c2.31,10.21,4,17.27,5.47,20.1h-9.46
		c-1.16-2.06-2.73-8.37-4.73-17.49c-2.1-10.1-5.89-13.91-14.2-14.23h-8.62v31.72h-9.15V41.27z M86.09,74.63h9.36
		c9.78,0,15.98-5.54,15.98-13.91c0-9.45-6.63-13.58-16.3-13.69c-4.42,0-7.57,0.43-9.04,0.87V74.63z"/>
</g>
</svg>
